<?xml version="1.0" encoding="UTF-8" standalone="no"?>
<!-- Created with Inkscape (http://www.inkscape.org/) -->

<svg
   width="135.92503mm"
   height="136.13406mm"
   viewBox="0 0 135.92503 136.13406"
   version="1.1"
   id="svg5"
   inkscape:version="1.1.1 (3bf5ae0d25, 2021-09-20)"
   sodipodi:docname="rysunek.svg"
   xmlns:inkscape="http://www.inkscape.org/namespaces/inkscape"
   xmlns:sodipodi="http://sodipodi.sourceforge.net/DTD/sodipodi-0.dtd"
   xmlns="http://www.w3.org/2000/svg"
   xmlns:svg="http://www.w3.org/2000/svg">
  <sodipodi:namedview
     id="namedview7"
     pagecolor="#ffffff"
     bordercolor="#666666"
     borderopacity="1.0"
     inkscape:pageshadow="2"
     inkscape:pageopacity="0"
     inkscape:pagecheckerboard="true"
     inkscape:document-units="mm"
     showgrid="false"
     inkscape:zoom="0.74118968"
     inkscape:cx="219.91671"
     inkscape:cy="281.30451"
     inkscape:window-width="1920"
     inkscape:window-height="1017"
     inkscape:window-x="-8"
     inkscape:window-y="-8"
     inkscape:window-maximized="1"
     inkscape:current-layer="layer1"
     fit-margin-top="0"
     fit-margin-left="0"
     fit-margin-right="0"
     fit-margin-bottom="0" />
  <defs
     id="defs2" />
  <g
     inkscape:label="Warstwa 1"
     inkscape:groupmode="layer"
     id="layer1"
     transform="translate(-28.139875,-26.828905)">
    <g
       id="g1320"
       style="stroke-width:0.529167;stroke-miterlimit:4;stroke-dasharray:none;stroke:#dc143c;stroke-opacity:1"
       inkscape:export-filename="C:\Users\janbi\Desktop\Visit Hong Kong\test.svg"
       inkscape:export-xdpi="96"
       inkscape:export-ydpi="96">
      <path
         style="fill:none;stroke:#dc143c;stroke-width:0.529167;stroke-linecap:butt;stroke-linejoin:miter;stroke-miterlimit:4;stroke-dasharray:none;stroke-opacity:1"
         d="m 47.410232,154.05536 8.232645,-10.19599 -0.535456,-0.71394 -0.803185,-1.22709 -0.535456,-1.09322 -0.290038,-0.58008 -0.535459,-1.74023 -0.267726,-1.13785 -0.111554,-2.74422 0.156173,-2.74421 0.290039,-1.09323 0.267729,-0.82549 0.267729,-0.75857 0.267727,-0.71394 0.290039,-0.6247 0.513146,-0.82549 0.468527,-0.91474 1.070911,-1.51713 0.892429,-0.80318 0.914739,-0.8255 0.914739,-0.73625 1.003979,-0.71395 0.937051,-0.53545 1.115534,-0.4239 0.914739,-0.37929 1.093224,-0.46852 1.405575,-0.33466 2.521108,-0.2008 2.721904,0.2008 1.2494,0.26773 0.803185,0.35697 1.294021,0.46852 0.267727,0.15618 8.224459,-10.20163 0.962337,0.69415 1.04122,0.89924 0.915011,0.75725 1.009666,0.8519 1.230532,1.18321 1.467173,1.53027 1.293635,1.54605 1.056995,1.56183 1.025443,1.75114 0.773027,1.49873 0.709923,1.5776 0.473281,1.32519 0.473279,1.35674 0.536387,2.01933 0.283969,1.64071 0.378624,3.72315 -0.09466,3.43918 -0.331296,1.98778 -0.331298,1.1201 -0.725696,2.47684 -0.836131,2.16132 -1.025443,2.25597 -1.593382,2.5715 -1.972005,2.57149 -2.319079,2.39796 -1.972005,1.68804 -1.877349,1.32518 -2.271752,1.29364 -2.50839,1.10432 -2.177095,0.82036 -1.798468,0.53638 -1.230532,0.25242 -1.893125,0.29975 -2.823912,0.0473 -4.022891,-0.0947 -1.372516,-0.28397 -1.48295,-0.3313 -1.861571,-0.47328 -1.593382,-0.56794 -1.27786,-0.52061 -1.546051,-0.75725 -1.356741,-0.7888 -1.325186,-0.74147 -1.56183,-1.1201 -1.656485,-1.29364 -1.277858,-1.02544 z"
         id="path890" />
      <path
         style="fill:none;stroke:#dc143c;stroke-width:0.529167;stroke-linecap:butt;stroke-linejoin:miter;stroke-miterlimit:4;stroke-dasharray:none;stroke-opacity:1"
         d="m 31.803373,71.151091 12.223326,4.724926 0.516275,-0.727939 0.923122,-1.139607 0.877425,-0.843783 0.463764,-0.453354 1.493517,-1.041407 1.001698,-0.602478 2.578998,-0.944422 2.660773,-0.689493 1.129583,-0.05771 0.867816,0.0028 0.804092,0.02323 0.761595,0.03687 0.683435,0.08537 0.942776,0.236484 1.014137,0.166732 1.771724,0.556342 1.037388,0.60445 1.06545,0.618882 0.980461,0.646144 0.98649,0.737929 0.796079,0.728718 0.744331,0.932777 0.640591,0.755154 0.780039,0.897878 0.74799,1.236184 0.961263,2.339288 0.64018,2.653161 0.126681,1.271468 -0.09458,0.873836 -0.05088,1.375286 -0.06694,0.302636 12.226204,4.715404 -0.367038,1.12837 -0.538239,1.26613 -0.441577,1.102579 -0.502787,1.221615 -0.75081,1.53313 -1.009006,1.864467 -1.077037,1.704042 -1.164335,1.48353 -1.354243,1.51131 -1.190996,1.19387 -1.285361,1.15786 -1.117298,0.85543 -1.147352,0.86506 -1.758986,1.12754 -1.475571,0.77155 -3.429578,1.49774 -3.303733,0.96034 -1.993977,0.29168 -1.167762,0.0267 -2.58013,0.0656 -2.31342,-0.13602 -2.461373,-0.28736 -2.935296,-0.7318 -3.050934,-1.09231 -2.991707,-1.47582 -2.209704,-1.36216 -1.835273,-1.38286 -1.925707,-1.76806 -1.817713,-2.05121 -1.446134,-1.82249 -1.060073,-1.54868 -0.616213,-1.094626 -0.863665,-1.711098 -0.907583,-2.674511 -1.138587,-3.859564 -0.148826,-1.393661 -0.13749,-1.513274 -0.117943,-1.917167 0.05411,-1.690708 0.105418,-1.375808 0.248832,-1.703462 0.336698,-1.532837 0.301266,-1.488333 0.589523,-1.829316 0.725856,-1.972455 0.586123,-1.530003 z"
         id="path890-5" />
      <path
         style="fill:none;stroke:#dc143c;stroke-width:0.529167;stroke-linecap:butt;stroke-linejoin:miter;stroke-miterlimit:4;stroke-dasharray:none;stroke-opacity:1"
         d="m 100.84445,27.283529 -0.15231,13.103871 0.86252,0.229136 1.39045,0.466335 1.09734,0.526972 0.58691,0.275954 1.49792,1.035061 0.91472,0.727779 1.78664,2.085927 1.57639,2.251682 0.44907,1.038089 0.30085,0.814007 0.25941,0.761449 0.23178,0.726412 0.15901,0.670135 0.10812,0.965955 0.19841,1.008407 0.0983,1.854421 -0.20354,1.183263 -0.20724,1.2146 -0.26254,1.144497 -0.34637,1.182257 -0.40433,1.000644 -0.61361,1.023517 -0.48348,0.864214 -0.56841,1.04477 -0.89659,1.133043 -1.85546,1.718589 -2.26179,1.527538 -1.14689,0.563299 -0.85176,0.216939 -1.30625,0.433234 -0.30693,0.04315 -0.14241,13.103242 -1.185487,0.05071 -1.374406,-0.06151 -1.187386,-0.02815 -1.320309,-0.04386 -1.698822,-0.167292 -2.099594,-0.293329 -1.973086,-0.413163 -1.797018,-0.572052 -1.889462,-0.740269 -1.534969,-0.69832 -1.534234,-0.799322 -1.192128,-0.74763 -1.211659,-0.772414 -1.67145,-1.253655 -1.238826,-1.112612 -2.60246,-2.68932 -2.054979,-2.759337 -0.970534,-1.766097 -0.433364,-1.0847 -0.963694,-2.394298 -0.681538,-2.21493 -0.59149,-2.406465 -0.340834,-3.005883 -0.04352,-3.240284 0.336488,-3.318905 0.503456,-2.546527 0.653785,-2.202975 0.983043,-2.422397 1.286081,-2.420234 1.201737,-1.992135 1.080214,-1.534699 0.810036,-0.960085 1.30106,-1.407487 2.188291,-1.785525 3.21775,-2.416342 1.253632,-0.626773 1.369658,-0.657982 1.754886,-0.780903 1.60289,-0.540524 1.325813,-0.382338 1.68293,-0.362554 1.553802,-0.220572 1.499719,-0.238204 1.919974,-0.08738 2.101748,-0.0097 1.638366,0.01406 z"
         id="path890-5-6" />
      <path
         style="fill:none;stroke:#dc143c;stroke-width:0.529167;stroke-linecap:butt;stroke-linejoin:miter;stroke-miterlimit:4;stroke-dasharray:none;stroke-opacity:1"
         d="m 163.76586,78.7714 -12.16784,4.866046 0.11781,0.884627 0.10031,1.463132 -0.0677,1.215431 -0.0307,0.647818 -0.38419,1.779749 -0.32306,1.123392 -1.24501,2.448085 -1.47853,2.317119 -0.78774,0.811636 -0.6373,0.589045 -0.60456,0.530661 -0.58273,0.491755 -0.55854,0.402991 -0.85136,0.468993 -0.85608,0.568654 -1.67616,0.799396 -1.17125,0.264 -1.20163,0.27256 -1.15798,0.19468 -1.2249,0.13163 -1.07921,0.009 -1.18031,-0.17599 -0.98337,-0.11659 -1.18269,-0.12609 -1.38964,-0.39565 -2.29714,-1.058027 -2.27584,-1.506535 -0.95877,-0.844638 -0.52592,-0.704247 -0.89946,-1.041609 -0.15715,-0.267155 -12.16348,4.874958 -0.49981,-1.076175 -0.46831,-1.293616 -0.42771,-1.108039 -0.4639,-1.236908 -0.4945,-1.633844 -0.53115,-2.052365 -0.37207,-1.981251 -0.15796,-1.879247 -0.0379,-2.028948 0.0589,-1.685325 0.15247,-1.723232 0.23541,-1.387338 0.25084,-1.414855 0.51991,-2.023637 0.55485,-1.569947 1.49092,-3.432554 1.7648,-2.953356 1.26127,-1.571703 0.83682,-0.814927 1.84441,-1.805408 1.78648,-1.476113 1.99788,-1.466087 2.64759,-1.463484 2.97781,-1.278265 3.19565,-0.957146 2.54568,-0.50773 2.28563,-0.237549 2.61422,-0.0171 2.72798,0.263765 2.30017,0.349393 1.83099,0.411876 1.19673,0.381735 1.79782,0.664564 2.48616,1.340035 3.46247,2.050361 1.05821,0.919032 1.13139,1.014334 1.39216,1.323369 1.11196,1.274749 0.85991,1.079131 0.97806,1.416714 0.79752,1.351631 0.79315,1.294917 0.81435,1.740919 0.812,1.938568 0.61301,1.519435 z"
         id="path890-5-6-7" />
      <path
         style="fill:none;stroke:#dc143c;stroke-width:0.529167;stroke-linecap:butt;stroke-linejoin:miter;stroke-miterlimit:4;stroke-dasharray:none;stroke-opacity:1"
         d="m 135.43995,159.85938 -8.15102,-10.26136 -0.81369,0.36654 -1.37292,0.51568 -1.18378,0.28369 -0.62943,0.15637 -1.81517,0.14231 -1.16885,0.0126 -2.70231,-0.49067 -2.64378,-0.75197 -1.00345,-0.5219 -0.74707,-0.44161 -0.68173,-0.42699 -0.63821,-0.41724 -0.54624,-0.41951 -0.69345,-0.68111 -0.79026,-0.65705 -1.24649,-1.37652 -0.58879,-1.04636 -0.6057,-1.07299 -0.51858,-1.05352 -0.47736,-1.1357 -0.31811,-1.03131 -0.16988,-1.1812 -0.17031,-0.9755 -0.21836,-1.16918 -0.0195,-1.44474 0.35484,-2.50406 0.79063,-2.61229 0.5342,-1.16072 0.52386,-0.70578 0.73993,-1.16039 0.21087,-0.22716 -8.15832,-10.25462 0.88763,-0.78743 1.105,-0.81961 0.93885,-0.72751 1.05193,-0.79912 1.42341,-0.94226 1.81385,-1.09739 1.79135,-0.92461 1.75501,-0.69023 1.93286,-0.61815 1.63143,-0.42687 1.69459,-0.34811 1.39657,-0.17232 1.42736,-0.16543 2.08775,-0.0822 1.66311,0.0814 3.71594,0.44395 3.3354,0.84376 1.86739,0.75757 1.02067,0.56799 2.2585,1.2492 1.92643,1.28815 1.97743,1.49354 2.16126,2.11671 2.07852,2.48617 1.83337,2.78695 1.21642,2.29317 0.88302,2.1215 0.76606,2.49952 0.52962,2.68906 0.32489,2.30375 0.13049,1.87219 -0.0225,1.25595 -0.12112,1.91289 -0.5708,2.76601 -0.9713,3.90503 -0.57697,1.27731 -0.6473,1.37475 -0.86856,1.7132 -0.90233,1.43082 -0.78722,1.13325 -1.07672,1.34325 -1.06616,1.15163 -1.01308,1.13117 -1.43427,1.2794 -1.6243,1.33381 -1.27982,1.02299 z"
         id="path890-5-6-7-2" />
    </g>
  </g>
</svg>
